HIERARCHY
ROOT hip
{
  OFFSET 0 0 0
  CHANNELS 6 Xposition Yposition Zposition Zrotation Yrotation Xrotation
  JOINT abdomen
  {
    OFFSET 0 20.6881 -0.73152
    CHANNELS 3 Zrotation Xrotation Yrotation
    JOINT chest
    {
      OFFSET 0 11.7043 -0.48768
      CHANNELS 3 Zrotation Xrotation Yrotation
      JOINT neck
      {
        OFFSET 0 22.1894 -2.19456
        CHANNELS 3 Zrotation Xrotation Yrotation
        JOINT head
        {
          OFFSET -0.24384 7.07133 1.2192
          CHANNELS 3 Zrotation Xrotation Yrotation
          JOINT leftEye
          {
            OFFSET 4.14528 8.04674 8.04672
            CHANNELS 3 Zrotation Xrotation Yrotation
            End Site
            {
              OFFSET 1 0 0
            }
          }
          JOINT rightEye
          {
            OFFSET -3.6576 8.04674 8.04672
            CHANNELS 3 Zrotation Xrotation Yrotation
            End Site
            {
              OFFSET 1 0 0
            }
          }
        }
      }
      JOINT rCollar
      {
        OFFSET -2.68224 19.2634 -4.8768
        CHANNELS 3 Zrotation Xrotation Yrotation
        JOINT rShldr
        {
          OFFSET -8.77824 -1.95073 1.46304
          CHANNELS 3 Zrotation Xrotation Yrotation
          JOINT rForeArm
          {
            OFFSET -28.1742 -1.7115 0.48768
            CHANNELS 3 Zrotation Xrotation Yrotation
            JOINT rHand
            {
              OFFSET -22.5879 0.773209 7.07136
              CHANNELS 3 Zrotation Xrotation Yrotation
              JOINT rThumb1
              {
                OFFSET -1.2192 -0.487915 3.41376
                CHANNELS 3 Zrotation Xrotation Yrotation
                JOINT rThumb2
                {
                  OFFSET -3.37035 -0.52449 3.41376
                  CHANNELS 3 Zrotation Xrotation Yrotation
                  End Site
                  {
                    OFFSET -1.78271 -1.18214 1.43049
                  }
                }
              }
              JOINT rIndex1
              {
                OFFSET -7.75947 0.938293 5.60832
                CHANNELS 3 Zrotation Xrotation Yrotation
                JOINT rIndex2
                {
                  OFFSET -2.54057 -0.884171 1.56538
                  CHANNELS 3 Zrotation Xrotation Yrotation
                  End Site
                  {
                    OFFSET -1.62519 -0.234802 1.16502
                  }
                }
              }
              JOINT rMid1
              {
                OFFSET -8.24714 1.18213 3.41376
                CHANNELS 3 Zrotation Xrotation Yrotation
                JOINT rMid2
                {
                  OFFSET -3.10165 -0.590103 1.0647
                  CHANNELS 3 Zrotation Xrotation Yrotation
                  End Site
                  {
                    OFFSET -2.48547 -0.328903 0.83742
                  }
                }
              }
              JOINT rRing1
              {
                OFFSET -8.82822 0.546677 1.51678
                CHANNELS 3 Zrotation Xrotation Yrotation
                JOINT rRing2
                {
                  OFFSET -2.60934 -0.819778 -0.0198488
                  CHANNELS 3 Zrotation Xrotation Yrotation
                  End Site
                  {
                    OFFSET -2.33842 -0.294052 0.168128
                  }
                }
              }
              JOINT rPinky1
              {
                OFFSET -8.27202 -0.0477905 -0.4584
                CHANNELS 3 Zrotation Xrotation Yrotation
                JOINT rPinky2
                {
                  OFFSET -1.82734 -0.647385 -0.700984
                  CHANNELS 3 Zrotation Xrotation Yrotation
                  End Site
                  {
                    OFFSET -1.69225 -0.51767 -0.607171
                  }
                }
              }
            }
          }
        }
      }
      JOINT lCollar
      {
        OFFSET 2.68224 19.2634 -4.8768
        CHANNELS 3 Zrotation Xrotation Yrotation
        JOINT lShldr
        {
          OFFSET 8.77824 -1.95073 1.46304
          CHANNELS 3 Zrotation Xrotation Yrotation
          JOINT lForeArm
          {
            OFFSET 28.1742 -1.7115 0.48768
            CHANNELS 3 Zrotation Xrotation Yrotation
            JOINT lHand
            {
              OFFSET 22.5879 0.773209 7.07136
              CHANNELS 3 Zrotation Xrotation Yrotation
              JOINT lThumb1
              {
                OFFSET 1.2192 -0.487915 3.41376
                CHANNELS 3 Zrotation Xrotation Yrotation
                JOINT lThumb2
                {
                  OFFSET 3.37035 -0.52449 3.41376
                  CHANNELS 3 Zrotation Xrotation Yrotation
                  End Site
                  {
                    OFFSET 1.78271 -1.18214 1.43049
                  }
                }
              }
              JOINT lIndex1
              {
                OFFSET 7.75947 0.938293 5.60832
                CHANNELS 3 Zrotation Xrotation Yrotation
                JOINT lIndex2
                {
                  OFFSET 2.54057 -0.884171 1.56538
                  CHANNELS 3 Zrotation Xrotation Yrotation
                  End Site
                  {
                    OFFSET 1.62519 -0.234802 1.16502
                  }
                }
              }
              JOINT lMid1
              {
                OFFSET 8.24714 1.18213 3.41376
                CHANNELS 3 Zrotation Xrotation Yrotation
                JOINT lMid2
                {
                  OFFSET 3.10165 -0.590103 1.0647
                  CHANNELS 3 Zrotation Xrotation Yrotation
                  End Site
                  {
                    OFFSET 2.48547 -0.328903 0.83742
                  }
                }
              }
              JOINT lRing1
              {
                OFFSET 8.82822 0.546677 1.51678
                CHANNELS 3 Zrotation Xrotation Yrotation
                JOINT lRing2
                {
                  OFFSET 2.60934 -0.819778 -0.0198488
                  CHANNELS 3 Zrotation Xrotation Yrotation
                  End Site
                  {
                    OFFSET 2.33842 -0.294052 0.168128
                  }
                }
              }
              JOINT lPinky1
              {
                OFFSET 8.27202 -0.0477905 -0.4584
                CHANNELS 3 Zrotation Xrotation Yrotation
                JOINT lPinky2
                {
                  OFFSET 1.82734 -0.647385 -0.700984
                  CHANNELS 3 Zrotation Xrotation Yrotation
                  End Site
                  {
                    OFFSET 1.69225 -0.51767 -0.607171
                  }
                }
              }
            }
          }
        }
      }
    }
  }
  JOINT rButtock
  {
    OFFSET -8.77824 4.35084 1.2192
    CHANNELS 3 Zrotation Xrotation Yrotation
    JOINT rThigh
    {
      OFFSET 0 -1.70687 -2.19456
      CHANNELS 3 Zrotation Xrotation Yrotation
      JOINT rShin
      {
        OFFSET 0 -36.8199 0.73152
        CHANNELS 3 Zrotation Xrotation Yrotation
        JOINT rFoot
        {
          OFFSET 0.73152 -45.1104 -5.12064
          CHANNELS 3 Zrotation Xrotation Yrotation
          End Site
          {
            OFFSET -1.1221 -3.69964 12.103
          }
        }
      }
    }
  }
  JOINT lButtock
  {
    OFFSET 8.77824 4.35084 1.2192
    CHANNELS 3 Zrotation Xrotation Yrotation
    JOINT lThigh
    {
      OFFSET 0 -1.70687 -2.19456
      CHANNELS 3 Zrotation Xrotation Yrotation
      JOINT lShin
      {
        OFFSET 0 -36.8199 0.73152
        CHANNELS 3 Zrotation Xrotation Yrotation
        JOINT lFoot
        {
          OFFSET -0.73152 -45.1104 -5.12064
          CHANNELS 3 Zrotation Xrotation Yrotation
          End Site
          {
            OFFSET 1.1221 -3.69964 12.103
          }
        }
      }
    }
  }
}
MOTION
Frames:	5
Frame Time:	0.03333
0.0 0.0 0.0 0.0 0.0 0.0 0.0 0.0 0.0 0.0 0.0 0.0 0.0 0.0 0.0 0.0 0.0 0.0 0.0 0.0 0.0 0.0 0.0 0.0 0.0 0.0 0.0 0.0 0.0 0.0 0.0 0.0 0.0 0.0 0.0 0.0 0.0 0.0 0.0 0.0 0.0 0.0 0.0 0.0 0.0 0.0 0.0 0.0 0.0 0.0 0.0 0.0 0.0 0.0 0.0 0.0 0.0 0.0 0.0 0.0 0.0 0.0 0.0 0.0 0.0 0.0 0.0 0.0 0.0 0.0 0.0 0.0 0.0 0.0 0.0 0.0 0.0 0.0 0.0 0.0 0.0 0.0 0.0 0.0 0.0 0.0 0.0 0.0 0.0 0.0 0.0 0.0 0.0 0.0 0.0 0.0 0.0 0.0 0.0 0.0 0.0 0.0 0.0 0.0 0.0 0.0 0.0 0.0 0.0 0.0 0.0 0.0 0.0 0.0 0.0 0.0 0.0 0.0 0.0 0.0 0.0 0.0 0.0 0.0 0.0 0.0 0.0 0.0 0.0 0.0 0.0 0.0
1.4704 66.9634 4.5372 -160.292451 53.074137 -164.387189 10.278947 11.118563 136.758579 -6.253054 2.39872 -119.054015 12.703273 22.912839 98.779424 -31.15212 9.298841 -69.341455 -0.003302 0.0 -0.000288 0.003356 0.0 0.00432 0.034358 -0.209499 -0.046207 -118.68264 -79.385334 169.936555 -18.546231 -15.287201 -154.873351 -143.889134 22.457389 136.180233 -168.698914 -6.378432 89.898094 24.506137 -62.037244 22.367291 -146.041403 -7.498089 119.012353 3.448496 13.155729 -7.155185 -160.675159 -6.667659 143.244619 11.53541 -24.897707 -1.138784 -66.264305 72.867006 83.838123 -66.409979 -82.502367 -83.45602 -5.647825 -12.861554 -5.299161 -145.620596 7.008319 -142.497195 -2.530308 -18.881233 3.793428 -76.437135 0.041451 -16.065277 -88.498198 22.357402 -81.458649 163.824312 55.071823 -139.680188 166.631461 -4.304766 -89.77174 -179.238209 -17.367805 -91.675435 162.918067 -37.929613 -122.629504 -25.197455 -24.334517 10.311932 36.036096 51.723111 -29.832313 170.865971 -28.325276 -144.136529 -0.001203 0.064021 -0.018417 2.354678 57.220557 -14.863855 -17.604554 61.627794 -12.867035 129.666532 -28.503737 126.767177 -0.001762 0.000861 -0.002644 -13.422512 -18.910625 -4.678935 47.689503 69.900236 -166.006242 108.939374 70.697159 1.573376 179.99217 75.748426 0.005357 -144.845659 -0.79912 1.364279 70.466479 71.868389 14.73514 1.757847 -23.999287 -89.948967
1.9314999999999998 66.4682 6.2626 -160.407723 52.647779 -164.355558 9.846409 12.413634 79.286453 -7.325474 -5.145502 -61.955185 4.719049 13.104128 27.619963 -8.151587 -21.142707 -1.254468 0.000606 -0.0 -0.003753 -0.003896 -0.0 0.002784 -0.165367 0.979194 0.218771 -108.126945 -17.279233 174.994434 -149.606806 -6.808045 -61.122385 -128.765466 -79.763855 -139.442146 93.028493 -51.082786 40.500873 -32.594953 2.165798 -9.590415 -27.422159 30.638548 20.099799 85.581089 -61.348675 37.470423 -10.916189 25.68087 7.592327 4.365437 -3.113865 -0.388486 0.005171 1.854378 0.582764 10.891288 -12.242146 -1.534501 -112.78506 -40.02481 -110.810812 16.604675 41.516409 6.616313 9.651492 34.836091 -11.199793 -70.595868 -7.235343 -66.073603 33.855701 -36.837427 -69.715327 -1.028646 -0.181726 -0.58599 0.544445 0.536013 -0.085922 133.276618 -32.829297 -116.703373 140.683074 1.505897 -116.184064 -9.036587 0.547693 9.285337 36.037742 51.722128 -29.833985 144.952748 36.222409 -132.103466 77.74191 72.903761 -95.869946 -5.149326 28.349266 0.799018 13.279497 -25.410469 12.630905 94.202294 -51.802236 94.051498 -179.998471 75.748077 0.0 160.950577 51.545008 -156.205765 -53.198816 -56.229181 113.680021 -86.432053 1.386346 -6.267587 -0.001092 0.000341 -0.000546 75.575477 -51.600615 -0.0 -88.72939 21.486591 -22.17643 113.766827 -31.152922 -152.922122
2.3994999999999997 66.027 7.696 -161.323809 52.741734 -164.686226 9.744623 9.486524 133.822214 -6.609119 1.780556 -116.091242 6.580895 31.688966 164.094222 -14.574843 39.217162 -130.466659 -0.003022 0.0 -0.001316 -0.001876 -0.0 0.004223 4.239035 -44.742795 -8.647577 129.466635 60.932388 -78.657406 -165.492924 -0.224391 32.119556 -135.822356 31.800817 126.6042 -169.571242 -7.254148 89.930103 -71.460747 1.560799 22.407601 10.211096 -18.050668 -4.56576 0.162924 17.937234 3.705235 -151.477638 17.842136 137.539459 -18.840239 42.872657 15.416719 0.006555 1.771272 0.557189 -49.877454 77.894687 62.987145 -145.255393 12.331381 -141.898323 -156.190061 38.646035 -146.159473 -4.225454 -44.097195 8.51492 96.298025 -21.413384 172.489119 5.491077 -18.525084 126.952946 -159.865047 -36.881108 -138.847561 -176.504831 -20.694725 -88.628199 110.994911 19.804425 -50.610922 148.886139 -12.609602 -120.245156 62.460694 57.286249 -45.899204 152.827307 14.793377 -138.514686 0.646379 10.885569 -2.175658 145.063216 -3.309185 178.086008 74.288322 -78.002743 96.081381 43.364652 -47.545956 42.162284 156.077783 45.145245 148.613986 -179.985399 75.750363 -0.00999 161.051978 50.149582 -170.812924 -66.922754 -65.29045 -134.201705 -47.785507 7.736296 -128.715854 0.000417 0.000881 -0.000536 74.855299 -53.386612 156.077478 83.989898 -1.133502 -123.261319 38.072601 28.170254 17.043109
2.9026 65.6888 8.8016 -162.072995 52.777521 -164.86212 8.467963 11.253498 70.491571 -6.715158 -6.433589 -52.991392 9.689122 29.508513 141.793572 -25.06505 31.54426 -106.799617 -0.00103 0.0 -0.001907 -0.00103 0.0 -0.001907 -85.537701 68.181731 88.688767 -107.377674 16.695163 101.15531 6.815857 4.466942 -145.886325 -119.65283 42.124374 108.843479 -78.030725 38.688421 42.412844 119.794927 -55.275979 49.523737 88.792038 -75.499313 40.050035 -163.55905 -27.332936 114.87271 173.122249 -66.297638 137.613358 -2.3887 14.677102 2.928052 -0.01694 -1.323217 -0.415398 -156.00431 -13.748266 173.485549 40.006133 85.640569 -0.91825 -11.981438 -26.256156 -12.782331 147.865691 28.560065 -152.690367 58.105089 12.363847 -3.529021 -178.90913 28.24611 89.270623 10.824873 37.335826 -2.890427 0.491556 0.484599 -0.078787 136.83587 -39.355259 -118.329118 0.327799 0.529703 -0.187066 160.99467 -12.856526 -110.123649 0.219748 0.638346 -0.123713 154.079194 20.054642 -138.725734 0.006263 -0.831722 0.260268 140.306964 60.456425 -154.524563 -44.716037 86.379036 5.351206 -69.195103 85.02115 31.979731 0.0 0.001884 -0.000415 -12.653562 -22.517406 -5.149338 77.001436 65.59077 102.293361 -142.119615 15.205603 -136.61687 179.988376 75.748946 0.007953 -143.593423 -1.189467 1.716228 80.193776 74.740739 -9.360779 13.892558 -31.549694 -70.145715
